<svg xmlns="http://www.w3.org/2000/svg" xmlns:xlink="http://www.w3.org/1999/xlink" width="500" zoomAndPan="magnify" viewBox="0 0 375 374.999991" height="500" preserveAspectRatio="xMidYMid meet" version="1.0"><defs><g/></defs><rect x="-37.5" width="450" fill="#ffffff" y="-37.499999" height="449.999989" fill-opacity="1"/><rect x="-37.5" width="450" fill="#2a2a2a" y="-37.499999" height="449.999989" fill-opacity="1"/><g fill="#ffffff" fill-opacity="1"><g transform="translate(12.659418, 259.499983)"><g><path d="M 140.875 -116.875 C 140.875 -99.4375 133.753906 -87.519531 119.515625 -81.125 C 132.640625 -76.800781 141.601562 -68.878906 146.40625 -57.359375 C 148.164062 -52.878906 149.046875 -47.679688 149.046875 -41.765625 C 149.046875 -22.554688 138.882812 -9.753906 118.5625 -3.359375 C 111.84375 -1.117188 103.921875 0 94.796875 0 L 19.4375 0 L 19.4375 -158.875 L 90.71875 -158.875 C 107.84375 -158.875 120.882812 -154.234375 129.84375 -144.953125 C 137.195312 -137.597656 140.875 -128.238281 140.875 -116.875 Z M 37.4375 -87.84375 L 90.71875 -87.84375 C 105.4375 -87.84375 115.273438 -92.878906 120.234375 -102.953125 C 121.992188 -106.472656 122.875 -110.273438 122.875 -114.359375 C 122.875 -118.441406 122.3125 -122.039062 121.1875 -125.15625 C 120.070312 -128.28125 118.316406 -131.039062 115.921875 -133.4375 C 110.640625 -139.039062 102.878906 -141.84375 92.640625 -141.84375 L 37.4375 -141.84375 Z M 96.71875 -17.046875 C 107.757812 -17.046875 116.238281 -19.320312 122.15625 -23.875 C 128.082031 -28.4375 131.046875 -34.878906 131.046875 -43.203125 C 131.046875 -51.203125 128.164062 -57.757812 122.40625 -62.875 C 116 -68.632812 106.796875 -71.515625 94.796875 -71.515625 L 37.4375 -71.515625 L 37.4375 -17.046875 Z M 96.71875 -17.046875 "/></g></g></g><g fill="#ffffff" fill-opacity="1"><g transform="translate(153.059169, 259.499983)"><g><path d="M 47.515625 47.515625 L 28.078125 47.515625 L 49.921875 -1.6875 L 0.953125 -120 L 20.875 -120 L 59.515625 -21.59375 L 98.875 -120 L 118.5625 -120 Z M 47.515625 47.515625 "/></g></g></g><g fill="#ffffff" fill-opacity="1"><g transform="translate(253.858974, 259.499983)"><g><path d="M 28.5625 0 L 28.5625 -104.15625 L 4.078125 -104.15625 L 4.078125 -120 L 28.5625 -120 L 28.5625 -162.953125 L 46.5625 -162.953125 L 46.5625 -120 L 74.15625 -120 L 74.15625 -104.15625 L 46.5625 -104.15625 L 46.5625 0 Z M 28.5625 0 "/></g></g></g><g fill="#ffffff" fill-opacity="1"><g transform="translate(313.618851, 259.499983)"><g><path d="M 36 -24.484375 L 36 0 L 12.71875 0 L 12.71875 -24.484375 Z M 36 -24.484375 "/></g></g></g></svg>